<svg width="52" height="52" viewBox="0 0 52 52" fill="none" xmlns="http://www.w3.org/2000/svg">
<path d="M52 25.974C52 11.635 40.352 0 26 0C11.648 0 0 11.635 0 25.974C0 33.8715 3.588 40.989 9.204 45.7665C9.256 45.8185 9.308 45.8185 9.308 45.8705C9.776 46.2345 10.244 46.5985 10.764 46.9625C11.024 47.1185 11.232 47.3232 11.492 47.5312C15.7887 50.4444 20.8608 52.0012 26.052 52C31.2432 52.0012 36.3153 50.4444 40.612 47.5312C40.872 47.3753 41.08 47.1705 41.34 47.0112C41.808 46.6505 42.328 46.2865 42.796 45.9225C42.848 45.8705 42.9 45.8705 42.9 45.8185C48.412 40.9857 52 33.8715 52 25.974ZM26 48.7272C21.112 48.7272 16.64 47.1672 12.948 44.5705C13 44.1545 13.104 43.7418 13.208 43.3258C13.5178 42.1983 13.9723 41.1158 14.56 40.105C15.132 39.117 15.808 38.233 16.64 37.453C17.42 36.673 18.356 35.9482 19.292 35.3763C20.28 34.8043 21.32 34.3882 22.464 34.0762C23.6169 33.7655 24.806 33.6092 26 33.6115C29.5446 33.5864 32.959 34.9461 35.516 37.401C36.712 38.597 37.648 40.001 38.324 41.6098C38.688 42.5457 38.948 43.5337 39.104 44.5705C35.2663 47.2685 30.6912 48.7198 26 48.7272ZM18.044 24.6772C17.5858 23.6282 17.3554 22.4939 17.368 21.3492C17.368 20.2085 17.576 19.0645 18.044 18.0245C18.512 16.9845 19.136 16.0518 19.916 15.2717C20.696 14.4917 21.632 13.871 22.672 13.403C23.712 12.935 24.856 12.727 26 12.727C27.196 12.727 28.288 12.935 29.328 13.403C30.368 13.871 31.304 14.495 32.084 15.2717C32.864 16.0518 33.488 16.9877 33.956 18.0245C34.424 19.0645 34.632 20.2085 34.632 21.3492C34.632 22.5452 34.424 23.6373 33.956 24.674C33.5043 25.6986 32.87 26.6325 32.084 27.43C31.2862 28.2148 30.3524 28.8481 29.328 29.2988C27.1792 30.1818 24.7688 30.1818 22.62 29.2988C21.5956 28.8481 20.6618 28.2148 19.864 27.43C19.0769 26.6441 18.4577 25.7065 18.044 24.674V24.6772ZM42.172 41.9217C42.172 41.8177 42.12 41.7658 42.12 41.6618C41.6086 40.0349 40.8548 38.4944 39.884 37.0923C38.9123 35.6797 37.7182 34.434 36.348 33.4035C35.3016 32.6163 34.1673 31.9532 32.968 31.4275C33.5136 31.0675 34.0192 30.6503 34.476 30.1827C35.2513 29.4174 35.9321 28.562 36.504 27.6348C37.6557 25.7426 38.2504 23.5641 38.22 21.3492C38.2361 19.7097 37.9176 18.084 37.284 16.5718C36.6584 15.1146 35.758 13.7916 34.632 12.675C33.5076 11.5701 32.1844 10.6879 30.732 10.075C29.2172 9.44253 27.5895 9.12516 25.948 9.14225C24.3063 9.12619 22.6786 9.44467 21.164 10.0782C19.6991 10.6899 18.3726 11.5908 17.264 12.727C16.1591 13.8502 15.2769 15.1724 14.664 16.6237C14.0304 18.136 13.7119 19.7617 13.728 21.4013C13.728 22.5452 13.884 23.6373 14.196 24.674C14.508 25.766 14.924 26.754 15.496 27.6868C16.016 28.6227 16.744 29.4548 17.524 30.2348C17.992 30.7028 18.512 31.1155 19.084 31.4795C17.881 32.0192 16.7463 32.7 15.704 33.5075C14.352 34.5475 13.156 35.7922 12.168 37.1442C11.1873 38.5406 10.4328 40.0826 9.932 41.7137C9.88 41.8177 9.88 41.9217 9.88 41.9738C5.772 37.817 3.224 32.2075 3.224 25.974C3.224 13.455 13.468 3.22075 26 3.22075C38.532 3.22075 48.776 13.455 48.776 25.974C48.7692 31.9539 46.3948 37.6877 42.172 41.9217Z" fill="#023047"/>
</svg>
