<svg width="45" height="52" viewBox="0 0 45 52" fill="none" xmlns="http://www.w3.org/2000/svg">
<path d="M9.375 10.1953C9.11719 10.1953 8.90625 10.4062 8.90625 10.6641V13.4766C8.90625 13.7344 9.11719 13.9453 9.375 13.9453H31.875C32.1328 13.9453 32.3438 13.7344 32.3438 13.4766V10.6641C32.3438 10.4062 32.1328 10.1953 31.875 10.1953H9.375ZM20.1562 18.6328H9.375C9.11719 18.6328 8.90625 18.8438 8.90625 19.1016V21.9141C8.90625 22.1719 9.11719 22.3828 9.375 22.3828H20.1562C20.4141 22.3828 20.625 22.1719 20.625 21.9141V19.1016C20.625 18.8438 20.4141 18.6328 20.1562 18.6328ZM17.3438 45.4688H4.21875V4.21875H37.0312V22.9688C37.0312 23.2266 37.2422 23.4375 37.5 23.4375H40.7812C41.0391 23.4375 41.25 23.2266 41.25 22.9688V1.875C41.25 0.837891 40.4121 0 39.375 0H1.875C0.837891 0 0 0.837891 0 1.875V47.8125C0 48.8496 0.837891 49.6875 1.875 49.6875H17.3438C17.6016 49.6875 17.8125 49.4766 17.8125 49.2188V45.9375C17.8125 45.6797 17.6016 45.4688 17.3438 45.4688ZM43.125 40.3125H34.6875V38.168C37.4004 37.3594 39.375 34.8516 39.375 31.875C39.375 28.248 36.4395 25.3125 32.8125 25.3125C29.1855 25.3125 26.25 28.248 26.25 31.875C26.25 34.8457 28.2246 37.3594 30.9375 38.168V40.3125H22.5C21.9844 40.3125 21.5625 40.7344 21.5625 41.25V50.1562C21.5625 50.6719 21.9844 51.0938 22.5 51.0938H43.125C43.6406 51.0938 44.0625 50.6719 44.0625 50.1562V41.25C44.0625 40.7344 43.6406 40.3125 43.125 40.3125ZM29.8828 31.875C29.8828 30.2578 31.1953 28.9453 32.8125 28.9453C34.4297 28.9453 35.7422 30.2578 35.7422 31.875C35.7422 33.4922 34.4297 34.8047 32.8125 34.8047C31.1953 34.8047 29.8828 33.4922 29.8828 31.875ZM40.4297 47.4609H25.1953V43.9453H40.4297V47.4609Z" fill="#023047"/>
</svg>
