<svg width="22" height="22" viewBox="0 0 22 22" fill="none" xmlns="http://www.w3.org/2000/svg">
<path d="M16.0085 0.841584C16.2273 0.622868 16.524 0.5 16.8333 0.5C17.1427 0.5 17.4394 0.622868 17.6582 0.841584L21.1582 4.34158C21.3769 4.56037 21.4998 4.85706 21.4998 5.16642C21.4998 5.47578 21.3769 5.77247 21.1582 5.99125L10.6582 16.4913C10.4394 16.7101 10.1427 16.833 9.83333 16.8331H6.33333C6.02391 16.8331 5.72717 16.7102 5.50838 16.4914C5.28958 16.2726 5.16667 15.9758 5.16667 15.6664V12.1664C5.16673 11.857 5.28969 11.5603 5.5085 11.3416L16.0085 0.841584ZM7.5 12.6494V14.4998H9.35033L18.6837 5.16642L16.8333 3.31608L7.5 12.6494ZM0.5 5.16642C0.5 4.54758 0.745833 3.95409 1.18342 3.5165C1.621 3.07892 2.21449 2.83308 2.83333 2.83308H8.66667C8.97609 2.83308 9.27283 2.956 9.49162 3.17479C9.71042 3.39359 9.83333 3.69033 9.83333 3.99975C9.83333 4.30917 9.71042 4.60592 9.49162 4.82471C9.27283 5.0435 8.97609 5.16642 8.66667 5.16642H2.83333V19.1664H16.8333V13.3331C16.8333 13.0237 16.9562 12.7269 17.175 12.5081C17.3938 12.2893 17.6906 12.1664 18 12.1664C18.3094 12.1664 18.6062 12.2893 18.825 12.5081C19.0438 12.7269 19.1667 13.0237 19.1667 13.3331V19.1664C19.1667 19.7853 18.9208 20.3787 18.4832 20.8163C18.0457 21.2539 17.4522 21.4998 16.8333 21.4998H2.83333C2.21449 21.4998 1.621 21.2539 1.18342 20.8163C0.745833 20.3787 0.5 19.7853 0.5 19.1664V5.16642Z" fill="#666666"/>
</svg>