<svg width="32" height="32" viewBox="0 0 32 32" fill="none" xmlns="http://www.w3.org/2000/svg">
<path d="M15.9993 5.33366C13.1704 5.33366 10.4573 6.45747 8.45688 8.45785C6.45649 10.4582 5.33268 13.1713 5.33268 16.0003C5.33268 18.8293 6.45649 21.5424 8.45688 23.5428C10.4573 25.5432 13.1704 26.667 15.9993 26.667C18.8283 26.667 21.5414 25.5432 23.5418 23.5428C25.5422 21.5424 26.666 18.8293 26.666 16.0003C26.666 13.1713 25.5422 10.4582 23.5418 8.45785C21.5414 6.45747 18.8283 5.33366 15.9993 5.33366ZM2.66602 16.0003C2.66602 8.63633 8.63535 2.66699 15.9993 2.66699C23.3633 2.66699 29.3327 8.63633 29.3327 16.0003C29.3327 23.3643 23.3633 29.3337 15.9993 29.3337C8.63535 29.3337 2.66602 23.3643 2.66602 16.0003Z" fill="#666666"/>
<path d="M16 18.667C15.6464 18.667 15.3072 18.5265 15.0572 18.2765C14.8071 18.0264 14.6667 17.6873 14.6667 17.3337V16.0003C14.6667 15.6467 14.8071 15.3076 15.0572 15.0575C15.3072 14.8075 15.6464 14.667 16 14.667C16.3536 14.667 16.6928 14.8075 16.9428 15.0575C17.1929 15.3076 17.3333 15.6467 17.3333 16.0003V17.3337C17.3333 17.6873 17.1929 18.0264 16.9428 18.2765C16.6928 18.5265 16.3536 18.667 16 18.667ZM14 22.0003C14 21.4699 14.2107 20.9612 14.5858 20.5861C14.9609 20.211 15.4696 20.0003 16 20.0003C16.5304 20.0003 17.0391 20.211 17.4142 20.5861C17.7893 20.9612 18 21.4699 18 22.0003C18 22.5308 17.7893 23.0395 17.4142 23.4145C17.0391 23.7896 16.5304 24.0003 16 24.0003C15.4696 24.0003 14.9609 23.7896 14.5858 23.4145C14.2107 23.0395 14 22.5308 14 22.0003Z" fill="#666666"/>
<path d="M16.5199 10.4149C15.2439 10.3549 14.1733 11.0682 13.9813 12.2189C13.9141 12.559 13.7171 12.8595 13.4321 13.0569C13.1471 13.2542 12.7964 13.3327 12.4544 13.2758C12.1124 13.219 11.8061 13.0311 11.6003 12.7522C11.3945 12.4732 11.3054 12.1251 11.3519 11.7815C11.8266 8.93354 14.4226 7.64554 16.6466 7.7522C17.7853 7.80554 18.9573 8.21487 19.8586 9.05754C20.7826 9.9202 21.3333 11.1575 21.3333 12.6669C21.3333 14.3882 20.6559 15.6655 19.4893 16.4429C18.4186 17.1562 17.1053 17.3335 15.9999 17.3335C15.6463 17.3335 15.3072 17.1931 15.0571 16.943C14.8071 16.693 14.6666 16.3538 14.6666 16.0002C14.6666 15.6466 14.8071 15.3074 15.0571 15.0574C15.3072 14.8073 15.6463 14.6669 15.9999 14.6669C16.8933 14.6669 17.5813 14.5109 18.0106 14.2242C18.3439 14.0015 18.6666 13.6109 18.6666 12.6669C18.6666 11.8429 18.3839 11.3295 18.0373 11.0055C17.6679 10.6602 17.1306 10.4455 16.5199 10.4149Z" fill="#666666"/>
</svg>
