<svg width="52" height="49" viewBox="0 0 52 49" fill="none" xmlns="http://www.w3.org/2000/svg">
<path d="M24.0625 5.15625C24.0625 4.70041 24.2436 4.26324 24.5659 3.94091C24.8882 3.61858 25.3254 3.4375 25.7812 3.4375H49.8438C50.2996 3.4375 50.7368 3.61858 51.0591 3.94091C51.3814 4.26324 51.5625 4.70041 51.5625 5.15625V8.59375C51.5625 9.04959 51.3814 9.48676 51.0591 9.80909C50.7368 10.1314 50.2996 10.3125 49.8438 10.3125H25.7812C25.3254 10.3125 24.8882 10.1314 24.5659 9.80909C24.2436 9.48676 24.0625 9.04959 24.0625 8.59375V5.15625ZM6.875 0C5.05164 0 3.30295 0.724328 2.01364 2.01364C0.724328 3.30295 0 5.05164 0 6.875L0 13.75C0 15.5734 0.724328 17.322 2.01364 18.6114C3.30295 19.9007 5.05164 20.625 6.875 20.625H13.75C15.5734 20.625 17.322 19.9007 18.6114 18.6114C19.9007 17.322 20.625 15.5734 20.625 13.75V6.875C20.625 5.05164 19.9007 3.30295 18.6114 2.01364C17.322 0.724328 15.5734 0 13.75 0H6.875ZM6.875 27.5C5.05164 27.5 3.30295 28.2243 2.01364 29.5136C0.724328 30.803 0 32.5516 0 34.375L0 41.25C0 43.0734 0.724328 44.822 2.01364 46.1114C3.30295 47.4007 5.05164 48.125 6.875 48.125H13.75C15.5734 48.125 17.322 47.4007 18.6114 46.1114C19.9007 44.822 20.625 43.0734 20.625 41.25V34.375C20.625 32.5516 19.9007 30.803 18.6114 29.5136C17.322 28.2243 15.5734 27.5 13.75 27.5H6.875ZM9.81063 14.9669C9.65097 15.1269 9.4613 15.2539 9.25249 15.3406C9.04368 15.4272 8.81983 15.4718 8.59375 15.4718C8.36767 15.4718 8.14382 15.4272 7.93501 15.3406C7.7262 15.2539 7.53653 15.1269 7.37687 14.9669L3.93938 11.5294C3.77957 11.3696 3.65281 11.1799 3.56633 10.9711C3.47984 10.7623 3.43533 10.5385 3.43533 10.3125C3.43533 10.0865 3.47984 9.86272 3.56633 9.65393C3.65281 9.44514 3.77957 9.25543 3.93938 9.09562C4.09918 8.93582 4.28889 8.80906 4.49768 8.72258C4.70647 8.63609 4.93026 8.59158 5.15625 8.59158C5.38224 8.59158 5.60603 8.63609 5.81482 8.72258C6.02361 8.80906 6.21332 8.93582 6.37313 9.09562L8.59375 11.3197L14.2519 5.65812C14.4117 5.49832 14.6014 5.37156 14.8102 5.28508C15.019 5.19859 15.2428 5.15408 15.4688 5.15408C15.6947 5.15408 15.9185 5.19859 16.1273 5.28508C16.3361 5.37156 16.5258 5.49832 16.6856 5.65812C16.8454 5.81793 16.9722 6.00764 17.0587 6.21643C17.1452 6.42522 17.1897 6.64901 17.1897 6.875C17.1897 7.10099 17.1452 7.32478 17.0587 7.53357C16.9722 7.74236 16.8454 7.93207 16.6856 8.09188L9.81063 14.9669ZM9.81063 42.4669C9.65097 42.6269 9.4613 42.7539 9.25249 42.8406C9.04368 42.9272 8.81983 42.9718 8.59375 42.9718C8.36767 42.9718 8.14382 42.9272 7.93501 42.8406C7.7262 42.7539 7.53653 42.6269 7.37687 42.4669L3.93938 39.0294C3.61664 38.7066 3.43533 38.2689 3.43533 37.8125C3.43533 37.3561 3.61664 36.9184 3.93938 36.5956C4.26211 36.2729 4.69983 36.0916 5.15625 36.0916C5.61267 36.0916 6.05039 36.2729 6.37313 36.5956L8.59375 38.8197L14.2519 33.1581C14.5746 32.8354 15.0123 32.6541 15.4688 32.6541C15.9252 32.6541 16.3629 32.8354 16.6856 33.1581C17.0084 33.4809 17.1897 33.9186 17.1897 34.375C17.1897 34.8314 17.0084 35.2691 16.6856 35.5919L9.81063 42.4669ZM24.0625 32.6562C24.0625 32.2004 24.2436 31.7632 24.5659 31.4409C24.8882 31.1186 25.3254 30.9375 25.7812 30.9375H49.8438C50.2996 30.9375 50.7368 31.1186 51.0591 31.4409C51.3814 31.7632 51.5625 32.2004 51.5625 32.6562V36.0938C51.5625 36.5496 51.3814 36.9868 51.0591 37.3091C50.7368 37.6314 50.2996 37.8125 49.8438 37.8125H25.7812C25.3254 37.8125 24.8882 37.6314 24.5659 37.3091C24.2436 36.9868 24.0625 36.5496 24.0625 36.0938V32.6562ZM24.0625 15.4688C24.0625 15.0129 24.2436 14.5757 24.5659 14.2534C24.8882 13.9311 25.3254 13.75 25.7812 13.75H42.9688C43.4246 13.75 43.8618 13.9311 44.1841 14.2534C44.5064 14.5757 44.6875 15.0129 44.6875 15.4688C44.6875 15.9246 44.5064 16.3618 44.1841 16.6841C43.8618 17.0064 43.4246 17.1875 42.9688 17.1875H25.7812C25.3254 17.1875 24.8882 17.0064 24.5659 16.6841C24.2436 16.3618 24.0625 15.9246 24.0625 15.4688ZM24.0625 42.9688C24.0625 42.5129 24.2436 42.0757 24.5659 41.7534C24.8882 41.4311 25.3254 41.25 25.7812 41.25H42.9688C43.4246 41.25 43.8618 41.4311 44.1841 41.7534C44.5064 42.0757 44.6875 42.5129 44.6875 42.9688C44.6875 43.4246 44.5064 43.8618 44.1841 44.1841C43.8618 44.5064 43.4246 44.6875 42.9688 44.6875H25.7812C25.3254 44.6875 24.8882 44.5064 24.5659 44.1841C24.2436 43.8618 24.0625 43.4246 24.0625 42.9688Z" fill="#023047"/>
</svg>
