<svg width="64" height="52" viewBox="0 0 64 52" fill="none" xmlns="http://www.w3.org/2000/svg">
<path d="M59.032 19.748H43.032C42.757 19.748 42.532 19.973 42.532 20.248V23.248C42.532 23.523 42.757 23.748 43.032 23.748H59.032C59.307 23.748 59.532 23.523 59.532 23.248V20.248C59.532 19.973 59.307 19.748 59.032 19.748ZM50.657 28.248H43.032C42.757 28.248 42.532 28.473 42.532 28.748V31.748C42.532 32.023 42.757 32.248 43.032 32.248H50.657C50.932 32.248 51.157 32.023 51.157 31.748V28.748C51.157 28.473 50.932 28.248 50.657 28.248ZM29.8008 14.1543H27.0945C26.707 14.1543 26.3945 14.4668 26.3945 14.8543V30.3543C26.3945 30.5793 26.5008 30.7855 26.682 30.9168L35.9883 37.7043C36.3008 37.9293 36.7383 37.8668 36.9633 37.5543L38.5695 35.3605V35.3543C38.7945 35.0418 38.7258 34.6043 38.4133 34.3793L30.4945 28.6543V14.8543C30.5008 14.4668 30.182 14.1543 29.8008 14.1543Z" fill="#023047"/>
<path d="M50.2688 36.1163H46.6563C46.3063 36.1163 45.975 36.2976 45.7875 36.5976C44.9938 37.8538 44.0688 39.0163 43.0063 40.0788C41.175 41.9101 39.0438 43.3476 36.675 44.3476C34.2188 45.3851 31.6125 45.9101 28.925 45.9101C26.2313 45.9101 23.625 45.3851 21.175 44.3476C18.8063 43.3476 16.675 41.9101 14.8438 40.0788C13.0125 38.2476 11.575 36.1163 10.575 33.7476C9.53754 31.2976 9.01254 28.6913 9.01254 25.9976C9.01254 23.3038 9.53754 20.7039 10.575 18.2476C11.575 15.8789 13.0125 13.7476 14.8438 11.9164C16.675 10.0851 18.8063 8.64761 21.175 7.64761C23.625 6.61011 26.2375 6.08511 28.925 6.08511C31.6188 6.08511 34.225 6.61011 36.675 7.64761C39.0438 8.64761 41.175 10.0851 43.0063 11.9164C44.0688 12.9789 44.9938 14.1414 45.7875 15.3976C45.975 15.6976 46.3063 15.8789 46.6563 15.8789H50.2688C50.7 15.8789 50.975 15.4289 50.7813 15.0476C46.7063 6.94136 38.4438 1.67261 29.2188 1.56636C15.7125 1.39761 4.49379 12.4539 4.46879 25.9476C4.44379 39.4663 15.4 50.4351 28.9188 50.4351C38.2625 50.4351 46.6625 45.1476 50.7813 36.9476C50.975 36.5663 50.6938 36.1163 50.2688 36.1163V36.1163Z" fill="#023047"/>
</svg>
