<svg width="71" height="50" viewBox="0 0 71 50" fill="none" xmlns="http://www.w3.org/2000/svg">
<path d="M0.5 8.75C0.5 3.92 4.42 0 9.25 0H61.75C66.58 0 70.5 3.92 70.5 8.75V41.25C70.5 43.5706 69.5781 45.7962 67.9372 47.4372C66.2962 49.0781 64.0706 50 61.75 50H9.25C6.92936 50 4.70376 49.0781 3.06282 47.4372C1.42187 45.7962 0.5 43.5706 0.5 41.25V8.75ZM9.25 5C8.25544 5 7.30161 5.39509 6.59835 6.09835C5.89509 6.80161 5.5 7.75544 5.5 8.75V41.25C5.5 43.32 7.18 45 9.25 45H61.75C62.7446 45 63.6984 44.6049 64.4016 43.9016C65.1049 43.1984 65.5 42.2446 65.5 41.25V8.75C65.5 7.75544 65.1049 6.80161 64.4016 6.09835C63.6984 5.39509 62.7446 5 61.75 5H9.25ZM43 15C42.337 15 41.7011 15.2634 41.2322 15.7322C40.7634 16.2011 40.5 16.837 40.5 17.5C40.5 18.163 40.7634 18.7989 41.2322 19.2678C41.7011 19.7366 42.337 20 43 20H58C58.663 20 59.2989 19.7366 59.7678 19.2678C60.2366 18.7989 60.5 18.163 60.5 17.5C60.5 16.837 60.2366 16.2011 59.7678 15.7322C59.2989 15.2634 58.663 15 58 15H43ZM43 30C42.337 30 41.7011 30.2634 41.2322 30.7322C40.7634 31.2011 40.5 31.837 40.5 32.5C40.5 33.163 40.7634 33.7989 41.2322 34.2678C41.7011 34.7366 42.337 35 43 35H58C58.663 35 59.2989 34.7366 59.7678 34.2678C60.2366 33.7989 60.5 33.163 60.5 32.5C60.5 31.837 60.2366 31.2011 59.7678 30.7322C59.2989 30.2634 58.663 30 58 30H43ZM21.805 23.57C22.696 23.57 23.5783 23.3945 24.4015 23.0535C25.2247 22.7125 25.9727 22.2128 26.6027 21.5827C27.2328 20.9527 27.7325 20.2047 28.0735 19.3815C28.4145 18.5583 28.59 17.676 28.59 16.785C28.59 15.894 28.4145 15.0117 28.0735 14.1885C27.7325 13.3653 27.2328 12.6173 26.6027 11.9873C25.9727 11.3572 25.2247 10.8575 24.4015 10.5165C23.5783 10.1755 22.696 10 21.805 10C20.0055 10 18.2797 10.7148 17.0073 11.9873C15.7348 13.2597 15.02 14.9855 15.02 16.785C15.02 18.5845 15.7348 20.3103 17.0073 21.5827C18.2797 22.8552 20.0055 23.57 21.805 23.57ZM14.79 26.96C13.6522 26.96 12.561 27.412 11.7565 28.2165C10.952 29.021 10.5 30.1122 10.5 31.25C10.5002 33.1121 11.1227 34.9207 12.2688 36.3883C13.4148 37.856 15.0185 38.8984 16.825 39.35L17.09 39.42C20.19 40.195 23.425 40.195 26.52 39.42L26.79 39.355C28.5965 38.9034 30.2002 37.861 31.3462 36.3933C32.4923 34.9257 33.1148 33.1171 33.115 31.255C33.1157 30.6912 33.0052 30.1328 32.7899 29.6118C32.5746 29.0907 32.2587 28.6172 31.8603 28.2183C31.4618 27.8194 30.9887 27.5029 30.4679 27.287C29.9471 27.0711 29.3888 26.96 28.825 26.96H14.79Z" fill="#023047"/>
</svg>
