<svg width="22" height="22" viewBox="0 0 28 28" fill="none" xmlns="http://www.w3.org/2000/svg">
<path d="M11.3327 3.33311C9.21095 3.33311 7.17612 4.17596 5.67583 5.67626C4.17554 7.17655 3.33268 9.21138 3.33268 11.3331C3.33268 13.4548 4.17554 15.4897 5.67583 16.99C7.17612 18.4903 9.21095 19.3331 11.3327 19.3331C13.4544 19.3331 15.4892 18.4903 16.9895 16.99C18.4898 15.4897 19.3327 13.4548 19.3327 11.3331C19.3327 9.21138 18.4898 7.17655 16.9895 5.67626C15.4892 4.17596 13.4544 3.33311 11.3327 3.33311ZM0.666016 11.3331C0.666259 9.63559 1.07164 7.96264 1.84847 6.4533C2.6253 4.94396 3.75114 3.64181 5.13242 2.65509C6.51371 1.66836 8.11054 1.02555 9.79022 0.780084C11.4699 0.534613 13.1839 0.69357 14.7898 1.24374C16.3957 1.79392 17.8471 2.71942 19.0234 3.94333C20.1996 5.16725 21.0668 6.65422 21.5528 8.28068C22.0388 9.90714 22.1296 11.6261 21.8177 13.2947C21.5058 14.9633 20.8001 16.5334 19.7593 17.8744L26.942 25.0571C27.1849 25.3086 27.3193 25.6454 27.3162 25.995C27.3132 26.3446 27.173 26.679 26.9258 26.9262C26.6786 27.1734 26.3441 27.3136 25.9946 27.3167C25.645 27.3197 25.3082 27.1853 25.0567 26.9424L17.874 19.7598C16.2973 20.9839 14.4087 21.741 12.423 21.9451C10.4374 22.1491 8.43427 21.7919 6.64155 20.914C4.84882 20.0361 3.3384 18.6728 2.28205 16.9791C1.22569 15.2854 0.665794 13.3292 0.666016 11.3331Z" fill="#666666"/>
</svg>
