<svg width="64" height="52" viewBox="0 0 64 52" fill="none" xmlns="http://www.w3.org/2000/svg">
<path d="M18.25 51.7812C18.25 51.7812 14.8125 51.7812 14.8125 48.3438C14.8125 44.9062 18.25 34.5938 32 34.5938C45.75 34.5938 49.1875 44.9062 49.1875 48.3438C49.1875 51.7812 45.75 51.7812 45.75 51.7812H18.25ZM32 31.3281C34.2792 31.3281 36.4651 30.4227 38.0767 28.8111C39.6883 27.1994 40.5938 25.0136 40.5938 22.7344C40.5938 20.4552 39.6883 18.2693 38.0767 16.6577C36.4651 15.046 34.2792 14.1406 32 14.1406C29.7208 14.1406 27.5349 15.046 25.9233 16.6577C24.3117 18.2693 23.4062 20.4552 23.4062 22.7344C23.4062 25.0136 24.3117 27.1994 25.9233 28.8111C27.5349 30.4227 29.7208 31.3281 32 31.3281Z" fill="#023047"/>
<path d="M11.375 0.21875C9.55164 0.21875 7.80295 0.943078 6.51364 2.23239C5.22433 3.5217 4.5 5.27039 4.5 7.09375L4.5 39.75C4.5 41.1175 5.04325 42.429 6.01023 43.396C6.97722 44.363 8.28873 44.9062 9.65625 44.9062H11.9009C12.6197 42.3801 13.8689 40.0363 15.5653 38.0312H7.9375V7.09375C7.9375 6.18207 8.29966 5.30773 8.94432 4.66307C9.58898 4.01841 10.4633 3.65625 11.375 3.65625H52.625C53.5367 3.65625 54.411 4.01841 55.0557 4.66307C55.7003 5.30773 56.0625 6.18207 56.0625 7.09375V38.0312H48.4347C50.3391 40.2794 51.4941 42.7509 52.0991 44.9062H54.3438C55.7113 44.9062 57.0228 44.363 57.9898 43.396C58.9568 42.429 59.5 41.1175 59.5 39.75V7.09375C59.5 5.27039 58.7757 3.5217 57.4864 2.23239C56.197 0.943078 54.4484 0.21875 52.625 0.21875H11.375Z" fill="#023047"/>
</svg>
